<?xml version="1.0" standalone="no"?>
<!DOCTYPE svg PUBLIC "-//W3C//DTD SVG 20010904//EN"
 "http://www.w3.org/TR/2001/REC-SVG-20010904/DTD/svg10.dtd">
<svg version="1.0" xmlns="http://www.w3.org/2000/svg"
 width="260.000000pt" height="260.000000pt" viewBox="0 0 260.000000 260.000000"
 preserveAspectRatio="xMidYMid meet">
<metadata>
Created by potrace 1.14, written by Peter Selinger 2001-2017
</metadata>
<g transform="translate(0.000000,260.000000) scale(0.100000,-0.100000)"
fill="#000000" stroke="none">
<path d="M1591 2483 c42 -157 55 -226 65 -348 10 -130 11 -155 5 -155 -4 0 -6
-15 -5 -34 4 -88 -70 -332 -112 -367 -8 -6 -14 -18 -14 -25 0 -8 -5 -14 -11
-14 -5 0 -8 -4 -5 -9 4 -5 3 -11 -1 -13 -5 -1 -27 -28 -51 -58 -24 -30 -82
-96 -130 -148 -132 -143 -148 -161 -193 -222 -65 -90 -121 -214 -140 -314 -12
-60 -19 -296 -9 -296 3 0 5 -21 5 -46 0 -25 3 -48 7 -50 5 -3 8 -17 8 -32 0
-15 11 -70 25 -122 22 -82 35 -124 62 -200 5 -14 18 14 27 57 1 7 5 16 9 19 4
4 7 13 7 20 0 50 154 313 235 400 5 6 30 36 55 65 25 30 126 135 225 235 214
215 325 335 325 349 0 6 12 22 39 52 35 38 106 183 127 262 9 31 17 101 19
156 2 88 -2 121 -29 245 -14 65 -31 93 -32 53 -1 -16 -12 -125 -18 -163 -1 -9
-5 -20 -8 -25 -10 -17 -32 -90 -30 -97 1 -5 -3 -8 -8 -8 -6 0 -10 -4 -10 -10
0 -18 -63 -114 -121 -185 -62 -75 -144 -156 -279 -275 -87 -77 -242 -229 -295
-290 -75 -86 -153 -226 -190 -337 -19 -60 -28 -69 -20 -20 3 17 8 48 11 67 3
19 10 51 16 70 16 54 90 210 99 210 5 0 9 7 9 15 0 8 6 23 14 32 8 10 42 54
74 98 68 91 78 102 236 269 64 67 125 133 136 147 12 13 31 35 43 49 50 58 97
120 97 130 0 5 4 10 8 10 14 0 79 136 99 205 10 36 11 165 1 208 -30 132 -109
256 -262 411 -157 159 -150 157 -115 29z"/>
<path d="M682 1429 c-21 -23 -34 -28 -77 -28 -29 0 -69 -7 -90 -15 -54 -23
-117 -93 -87 -97 4 -1 21 -2 37 -4 17 -1 30 -3 30 -4 0 -2 8 -4 18 -6 36 -7
106 -47 143 -83 55 -52 87 -96 127 -177 29 -57 84 -216 91 -259 1 -6 5 -17 9
-23 5 -7 6 -17 2 -22 -3 -5 -1 -12 5 -16 6 -4 10 11 11 37 4 114 36 240 92
358 56 118 161 249 265 333 19 15 31 27 26 28 -5 1 -137 2 -293 3 l-283 2 -26
-27z"/>
</g>
</svg>
